<svg width="31" height="28" viewBox="0 0 31 28" fill="none" xmlns="http://www.w3.org/2000/svg">
<path d="M21.5829 23.3333H7.9115C7.25224 23.3333 6.61999 23.0875 6.15383 22.6499C5.68767 22.2123 5.42578 21.6188 5.42578 21V8.16663C5.42578 7.54779 5.68767 6.95429 6.15383 6.51671C6.61999 6.07912 7.25224 5.83329 7.9115 5.83329H12.8829V8.16663H7.9115V21H21.5829V16.3333H24.0686V21C24.0686 21.6188 23.8067 22.2123 23.3406 22.6499C22.8744 23.0875 22.2422 23.3333 21.5829 23.3333ZM14.9958 15.9915L13.2434 14.3418L21.0647 6.99996H16.6115V4.66663H25.3115V12.8333H22.8258V8.65079L14.9958 15.9915Z" fill="white"/>
</svg>
