<svg width="21" height="16" viewBox="0 0 21 16" fill="none" xmlns="http://www.w3.org/2000/svg">
<path fill-rule="evenodd" clip-rule="evenodd" d="M20.3887 15.3305V0L15.8545 4.57489C15.2976 4.02597 14.9618 3.72146 14.5518 3.39049C12.9974 2.13584 11.4525 1.61624 9.06167 1.61624C4.6594 1.61624 0 5.24894 0 9.61624V12.3753L1.93365 10.4244C1.98037 10.3772 2.08936 10.2763 2.2531 10.1396C2.53512 9.90406 2.8579 9.66721 3.21304 9.44671C4.19943 8.83426 5.22773 8.47339 6.2299 8.47339C7.99778 8.47339 8.87564 8.98543 9.89909 10.5836L5.19436 15.3305H20.3887ZM15.0569 6.9952L15.8579 7.80333L18.1233 5.51761V13.0442H10.6635L12.7397 10.9494L12.3105 10.1915C10.7086 7.36315 9.19416 6.18708 6.22983 6.18708C5.21881 6.18708 4.23667 6.42004 3.29569 6.82922C4.58355 5.13122 6.88412 3.90137 9.0616 3.90137C10.9499 3.90137 11.994 4.25252 13.1365 5.17474C13.6225 5.56695 14.0189 5.94788 15.0569 6.9952Z" fill="#D9D9D9"/>
</svg>
