<svg width="21" height="16" viewBox="0 0 21 16" fill="none" xmlns="http://www.w3.org/2000/svg">
<path fill-rule="evenodd" clip-rule="evenodd" d="M0 15.3305H15.1944L10.4897 10.5836C11.5131 8.98543 12.391 8.47339 14.1589 8.47339C15.161 8.47339 16.1893 8.83426 17.1757 9.44671C17.5308 9.66721 17.8536 9.90406 18.1356 10.1396C18.2994 10.2763 18.4084 10.3772 18.4551 10.4244L20.3887 12.3753V9.61624C20.3887 5.24894 15.7294 1.61624 11.3271 1.61624C8.93626 1.61624 7.39133 2.13584 5.83694 3.39049C5.4269 3.72146 5.0911 4.02597 4.53427 4.57489L0 0V15.3305ZM2.26532 13.0442V5.51761L4.53074 7.80333L5.33168 6.9952C6.36971 5.94788 6.76613 5.56695 7.25204 5.17474C8.39457 4.25252 9.43868 3.90137 11.327 3.90137C13.5045 3.90137 15.805 5.13122 17.0929 6.82922C16.1519 6.42004 15.1698 6.18708 14.1588 6.18708C11.1944 6.18708 9.67994 7.36315 8.0781 10.1915L7.64886 10.9494L9.72509 13.0442H2.26532Z" fill="#D9D9D9"/>
</svg>
