<svg width="37" height="37" viewBox="0 0 37 37" fill="none" xmlns="http://www.w3.org/2000/svg">
<path d="M16.3082 1.34508C17.494 0.0763623 19.506 0.076364 20.6918 1.34508L23.166 3.99239C23.7574 4.62518 24.5934 4.97148 25.4591 4.94222L29.0806 4.81983C30.8161 4.76118 32.2388 6.18386 32.1802 7.91945L32.0578 11.5409C32.0285 12.4066 32.3748 13.2426 33.0076 13.834L35.6549 16.3082C36.9236 17.494 36.9236 19.506 35.6549 20.6918L33.0076 23.166C32.3748 23.7574 32.0285 24.5934 32.0578 25.4591L32.1802 29.0806C32.2388 30.8161 30.8161 32.2388 29.0805 32.1802L25.4591 32.0578C24.5934 32.0285 23.7574 32.3748 23.166 33.0076L20.6918 35.6549C19.506 36.9236 17.494 36.9236 16.3082 35.6549L13.834 33.0076C13.2426 32.3748 12.4066 32.0285 11.5409 32.0578L7.91945 32.1802C6.18386 32.2388 4.76118 30.8161 4.81983 29.0805L4.94222 25.4591C4.97148 24.5934 4.62518 23.7574 3.99239 23.166L1.34508 20.6918C0.0763623 19.506 0.076364 17.494 1.34508 16.3082L3.99239 13.834C4.62518 13.2426 4.97148 12.4066 4.94222 11.5409L4.81983 7.91945C4.76118 6.18386 6.18386 4.76118 7.91945 4.81983L11.5409 4.94222C12.4066 4.97148 13.2426 4.62518 13.834 3.99239L16.3082 1.34508Z" fill="#70A21E"/>
</svg>
